<svg viewBox="0 0 29 24" fill="none"><path d="M21.434 23.988H6.746C3.03 23.988 0 20.958 0 17.242c0-3.715 3.03-6.746 6.746-6.746h14.688c3.715 0 6.746 3.03 6.746 6.746 0 3.716-3.03 6.746-6.746 6.746z" fill="#55C5FF"></path><path d="M6.747 23.988a6.681 6.681 0 01-4.772-1.973c-2.624-2.624-2.624-6.909 0-9.545l10.38-10.38c2.624-2.624 6.909-2.624 9.544 0a6.77 6.77 0 010 9.544l-10.38 10.38a6.7 6.7 0 01-4.772 1.974z" fill="url(#lifetech_svg__paint0_linear)"></path><path d="M6.746 23.988c1.8 0 3.495-.697 4.76-1.974l10.38-10.38c.314-.314.593-.65.837-1.01a6.736 6.736 0 00-1.289-.128H6.746C3.03 10.496 0 13.526 0 17.242c0 3.716 3.03 6.746 6.746 6.746z" fill="#0049FF"></path><defs><linearGradient id="lifetech_svg__paint0_linear" x1="24.999" y1="-17.499" x2="9.999" y2="20.501" gradientUnits="userSpaceOnUse"><stop stop-color="#0049FF"></stop><stop offset="1" stop-color="#002394"></stop></linearGradient></defs></svg>
